# xmcd
#
# Track frame offsets:
#	187
#	3845
#	22325
#	36260
#	47787
#	59422
#	69850
#	85262
#	101192
#	111947
#	126552
#	141755
#	154400
#	169340
#	183952
#	199550
#	201690
#	222092
#
# Disc length: 4309 seconds
#
# Revision: 0
# Processed by: cddbd v1.4PL0 Copyright (c) Steve Scherf et al.
# Submitted via: EasyCDDAExtractor 4.5.0.2
#
DISCID=1210d312
DTITLE=Don Williams - An Evening With Don Williams: Best of Live
DYEAR=1900
DGENRE=
TTITLE0=Introduction
TTITLE1=Good Ole Boys Like Me
TTITLE2=She's In Love With A Rodeo Man
TTITLE3=Some Broken Hearts Never Mend
TTITLE4=The Ties That Bind
TTITLE5=Louisiana Saturday Night
TTITLE6=Till The Rivers All Run Dry
TTITLE7=I Recall A Gypsy Woman
TTITLE8=It Must Be Love
TTITLE9=Lay Down Beside Me
TTITLE10=Lord, I Hope This Day Is Good
TTITLE11=(I'm Just A) Country Boy
TTITLE12=Tulsa Time
TTITLE13=Amanda
TTITLE14=You're My Best Friend
TTITLE15=Dialogue
TTITLE16=I Believe In You
TTITLE17=Interview with Don Williams
EXTD=
EXTT0=
EXTT1=
EXTT2=
EXTT3=
EXTT4=
EXTT5=
EXTT6=
EXTT7=
EXTT8=
EXTT9=
EXTT10=
EXTT11=
EXTT12=
EXTT13=
EXTT14=
EXTT15=
EXTT16=
EXTT17=
PLAYORDER=
